Coordinates
version=1
nRows=32
nColumns=12
inDegrees=yes

Units are S.I. units (second, meters, Newtons, ...)
Angles are in degrees

endheader
time	SC_y	SC_z	SC_x	AC_y	AC_z	AC_x	GH_y	GH_z	GH_yy	EL_x	PS_y
       0.0              -38.35          8.598          52.64          38.81         -10.19         -15.49          157.1          37.47         -12.07          70.22          134.5
   0.01305              -38.35          8.601          52.65          38.81         -10.19         -15.49          157.0          37.47         -12.08          70.22          134.5
    0.0261              -38.35          8.605          52.65          38.81         -10.19         -15.49          157.0          37.46         -12.08          70.22          134.4
   0.03915              -38.35          8.609          52.66          38.81         -10.19         -15.48          157.0          37.46         -12.08          70.23          134.4
    0.0522              -38.35          8.614          52.66          38.81         -10.19         -15.48          156.9          37.45         -12.09          70.23          134.4
   0.06525              -38.35          8.618          52.67          38.81         -10.19         -15.48          156.9          37.45         -12.09          70.23          134.4
    0.0783              -38.35          8.623          52.67          38.82         -10.19         -15.48          156.9          37.44          -12.1          70.24          134.4
   0.09135              -38.35          8.629          52.68          38.82         -10.19         -15.48          156.8          37.43          -12.1          70.24          134.3
    0.1044              -38.35          8.634          52.69          38.82         -10.19         -15.48          156.8          37.43         -12.11          70.25          134.3
    0.1175              -38.34           8.64           52.7          38.82         -10.19         -15.48          156.7          37.42         -12.12          70.25          134.3
    0.1305              -38.34          8.647           52.7          38.82         -10.19         -15.48          156.7          37.41         -12.12          70.26          134.2
    0.1436              -38.34          8.654          52.71          38.82         -10.19         -15.48          156.6           37.4         -12.13          70.26          134.2
    0.1566              -38.34          8.662          52.72          38.82          -10.2         -15.48          156.6          37.39         -12.14          70.27          134.2
    0.1697              -38.34           8.67          52.73          38.83          -10.2         -15.47          156.5          37.38         -12.14          70.27          134.1
    0.1827              -38.33          8.679          52.74          38.83          -10.2         -15.47          156.4          37.37         -12.15          70.28          134.1
    0.1958              -38.33          8.689          52.76          38.83          -10.2         -15.47          156.4          37.35         -12.16          70.29          134.0
    0.2088              -38.33          8.699          52.77          38.83          -10.2         -15.47          156.3          37.34         -12.17           70.3          134.0
    0.2219              -38.33           8.71          52.78          38.84          -10.2         -15.47          156.2          37.32         -12.18          70.31          133.9
    0.2349              -38.32          8.723           52.8          38.84          -10.2         -15.46          156.1          37.31          -12.2          70.32          133.9
     0.248              -38.32          8.737          52.82          38.84          -10.2         -15.46          156.0          37.29         -12.21          70.33          133.8
     0.261              -38.32          8.752          52.84          38.85          -10.2         -15.46          155.9          37.27         -12.22          70.34          133.8
    0.2741              -38.31          8.768          52.86          38.85         -10.21         -15.46          155.7          37.25         -12.24          70.35          133.7
    0.2871              -38.31          8.786          52.88          38.85         -10.21         -15.45          155.6          37.22         -12.26          70.37          133.6
    0.3002               -38.3          8.807          52.91          38.86         -10.21         -15.45          155.4           37.2         -12.28          70.39          133.5
    0.3132               -38.3          8.829          52.93          38.86         -10.21         -15.45          155.3          37.17          -12.3           70.4          133.4
    0.3263              -38.29          8.854          52.97          38.87         -10.21         -15.44          155.1          37.13         -12.32          70.42          133.3
    0.3393              -38.28          8.882           53.0          38.88         -10.22         -15.44          154.8           37.1         -12.35          70.45          133.1
    0.3524              -38.28          8.914          53.04          38.88         -10.22         -15.43          154.6          37.05         -12.38          70.47          133.0
    0.3654              -38.27           8.95          53.09          38.89         -10.22         -15.42          154.3          37.01         -12.42           70.5          132.8
    0.3785              -38.26           8.99          53.14           38.9         -10.23         -15.42          154.0          36.95         -12.46          70.53          132.6
    0.3915              -38.24          9.036           53.2          38.91         -10.23         -15.41          153.6          36.89          -12.5          70.57          132.4
    0.4046              -38.23           9.09          53.27          38.93         -10.24          -15.4          153.2          36.82         -12.55          70.61          132.2
